<svg xmlns="http://www.w3.org/2000/svg" fill="none" viewBox="0 0 143 40" height="40" width="143">
<g clip-path="url(#clip0_36_970)">
<path fill="white" d="M19.5265 39.9999L0 20.4768L0.829961 8.52332L12.7835 7.69336L32.3099 27.2198L31.48 39.1733L19.5265 39.9999ZM1.6186 19.8707L20.1326 38.3847L30.0095 37.6994L30.6948 27.8225L12.1774 9.30851L2.30392 9.99383L1.6186 19.8707Z"></path>
<path fill="white" d="M12.7835 32.3099L0.829961 31.48L0 19.5265L19.5265 0L31.48 0.829961L32.3099 12.7835L12.7835 32.3099ZM2.30392 30.006L12.1808 30.6913L30.6948 12.1774L30.006 2.30392L20.1326 1.6186L1.6186 20.1326L2.30392 30.006Z"></path>
<path fill="white" d="M43.4453 12.8975H45.7527V22.8949L60.8917 12.8975L64.9795 12.9388L57.9163 17.5742C56.9313 18.2216 55.9016 18.8966 54.8306 19.5991C53.7596 20.3017 52.692 21.0008 51.6313 21.693C50.5706 22.3886 49.5409 23.0671 48.5353 23.7283C47.5297 24.3895 46.6033 24.9956 45.7527 25.5501L43.4453 27.0481V12.8975ZM53.2946 19.0653L55.2163 17.7705L57.286 19.7989C58.3502 20.7184 59.2731 21.507 60.048 22.1682C60.8228 22.8294 61.5254 23.4321 62.1522 23.9797C62.7789 24.5272 63.3747 25.0404 63.9326 25.5191C64.494 25.9978 65.0897 26.5143 65.7234 27.0688H62.283L58.822 24.0933C58.3915 23.7145 57.9645 23.346 57.5478 22.981C57.1311 22.6159 56.7591 22.2991 56.4354 22.0305C56.06 21.6999 53.6459 19.3477 53.2946 19.0653Z"></path>
<path fill="white" d="M72.0059 27.0859V12.918H74.3339V27.0859H72.0059Z"></path>
<path fill="white" d="M102.222 24.8784V27.0859H81.6172V12.918H83.9245V24.8784H102.222Z"></path>
<path fill="white" d="M108.699 27.0859V12.918H111.027V27.0859H108.699Z"></path>
<path fill="white" d="M125.092 12.918H142.904V15.1255H125.092C124.376 15.1255 123.711 15.2529 123.098 15.5112C122.485 15.7695 121.948 16.1207 121.49 16.565C121.032 17.0127 120.67 17.5292 120.408 18.1181C120.147 18.707 120.012 19.3304 120.012 19.995V20.0157C120.012 20.6907 120.147 21.3278 120.419 21.9236C120.687 22.5193 121.056 23.0359 121.521 23.4767C121.986 23.9175 122.526 24.2654 123.139 24.5202C123.752 24.7785 124.403 24.9059 125.092 24.9059H140.596V21.1349H136.488L134.969 18.9274H142.904V27.1031H125.092C124.121 27.1031 123.191 26.924 122.299 26.5658C121.407 26.2077 120.622 25.7083 119.94 25.0678C119.258 24.4272 118.714 23.673 118.311 22.8121C117.905 21.9477 117.705 21.011 117.705 19.9985C117.705 18.9998 117.908 18.0699 118.311 17.2055C118.718 16.3411 119.258 15.5938 119.94 14.9602C120.622 14.3265 121.407 13.8271 122.299 13.4621C123.191 13.1005 124.121 12.918 125.092 12.918Z"></path>
</g>
<defs>
<clipPath id="clip0_36_970">
<rect fill="white" height="40" width="142.901"></rect>
</clipPath>
</defs>
</svg>
